# Blender 4.5.7 LTS
# www.blender.org
mtllib housing.mtl
o polySurface60
v -0.028144 0.000139 -0.038137
v 0.028127 0.000139 -0.038137
v -0.028144 0.000139 0.018134
v 0.028127 0.000139 0.018134
v -0.028144 0.165925 -0.038137
v 0.028127 0.165925 -0.038137
v 0.028127 0.165925 0.018134
v -0.028144 0.165925 0.018134
v 0.018860 0.186057 -0.000611
v 0.018860 0.186331 -0.019372
v 0.028145 0.186331 -0.038145
v 0.028132 0.186034 0.018145
v 0.028157 0.186057 -0.000611
v 0.028157 0.186331 -0.019372
v 0.020036 0.177740 -0.002985
v 0.020036 0.177740 -0.016998
v 0.026980 0.177740 -0.002985
v 0.026980 0.177740 -0.016998
v 0.018860 0.165910 -0.019372
v 0.018860 0.165910 -0.000611
v 0.028157 0.165910 -0.019372
v 0.028145 0.165910 -0.038145
v 0.028132 0.165989 0.018145
v 0.028157 0.165910 -0.000611
v 0.018858 0.186034 0.008812
v 0.018858 0.165989 0.008812
v -0.028157 0.185737 0.018157
v -0.009414 0.185737 0.018140
v 0.009347 0.186011 0.018140
v -0.009414 0.185737 0.008842
v 0.009347 0.186011 0.008842
v -0.007039 0.177898 0.016963
v 0.006973 0.177898 0.016963
v -0.007039 0.177898 0.010019
v 0.006973 0.177898 0.010019
v 0.009347 0.166068 0.018140
v -0.009414 0.166068 0.018140
v 0.009347 0.166068 0.008842
v -0.028157 0.166068 0.018157
v -0.009414 0.166068 0.008842
v -0.018851 0.166068 0.008859
v -0.018851 0.185737 0.008859
v -0.009389 0.186057 -0.028860
v 0.009372 0.186331 -0.028860
v -0.028145 0.186034 -0.038132
v -0.009389 0.186057 -0.038157
v 0.009372 0.186331 -0.038157
v -0.007015 0.177740 -0.030036
v 0.006998 0.177740 -0.030036
v -0.007015 0.177740 -0.036980
v 0.006998 0.177740 -0.036980
v 0.009372 0.165910 -0.028860
v -0.009389 0.165910 -0.028860
v 0.009372 0.165910 -0.038157
v -0.028145 0.165989 -0.038132
v -0.009389 0.165910 -0.038157
v -0.018812 0.186034 -0.028858
v -0.018812 0.165989 -0.028858
v -0.028140 0.185737 -0.000586
v -0.028140 0.186011 -0.019347
v -0.018842 0.185737 -0.000586
v -0.018842 0.186011 -0.019347
v -0.026963 0.177898 -0.002961
v -0.026963 0.177898 -0.016973
v -0.020019 0.177898 -0.002961
v -0.020019 0.177898 -0.016973
v -0.028140 0.166068 -0.019347
v -0.028140 0.166068 -0.000586
v -0.018842 0.166068 -0.019347
v -0.018842 0.166068 -0.000586
v 0.018832 0.186331 -0.028833
v 0.018832 0.165910 -0.028833
vn -0.0000 -0.0000 -1.0000
vn -0.0000 1.0000 -0.0000
vn -0.0000 -1.0000 -0.0000
vn 1.0000 -0.0000 -0.0000
vn -0.0000 -0.0000 1.0000
vn -1.0000 -0.0000 -0.0000
vn -0.9951 0.0990 -0.0000
vn -0.0000 0.1968 0.9805
vn -0.0000 0.1968 -0.9805
vn 0.9951 0.0990 -0.0000
vn 1.0000 -0.0000 0.0013
vn -0.0012 1.0000 0.0012
vn -0.0008 1.0000 0.0016
vn -1.0000 -0.0000 -0.0001
vn -0.0000 0.0990 0.9951
vn -0.0032 -0.0000 -1.0000
vn -0.0016 1.0000 0.0008
vn -0.0003 -0.0000 1.0000
vn -0.9805 0.1968 -0.0000
vn 0.9805 0.1968 -0.0000
vn -0.0000 0.0990 -0.9951
vn 0.0007 -0.0000 -1.0000
vn -0.0029 -0.0000 1.0000
vn -0.0013 -0.0000 -1.0000
vn 0.0001 -0.0000 1.0000
vn 1.0000 -0.0000 0.0032
vn -1.0000 -0.0000 0.0003
vn 0.7071 -0.0000 -0.7071
vn 1.0000 -0.0000 0.0009
vn -1.0000 -0.0000 -0.0009
vn -0.0018 -0.0000 -1.0000
vn 0.0009 -0.0000 1.0000
vn 1.0000 -0.0000 -0.0007
vn -1.0000 -0.0000 0.0030
vt 0.259797 0.264358
vt 0.259813 0.349711
vt 0.008348 0.349758
vt 0.008332 0.264405
vt 0.260008 0.555081
vt 0.345361 0.555089
vt 0.345353 0.640441
vt 0.260000 0.640433
vt 0.518408 0.878741
vt 0.433055 0.878741
vt 0.433055 0.793389
vt 0.518407 0.793388
vt 0.259781 0.179006
vt 0.008316 0.179053
vt 0.008300 0.093701
vt 0.259766 0.093654
vt 0.008284 0.008349
vt 0.259750 0.008302
vt 0.197071 0.349728
vt 0.225528 0.349718
vt 0.221933 0.367752
vt 0.200679 0.367760
vt 0.768676 0.907357
vt 0.782779 0.907355
vt 0.782783 0.938330
vt 0.768681 0.938332
vt 0.925093 0.243792
vt 0.925095 0.257894
vt 0.894536 0.257899
vt 0.894534 0.243797
vt 0.283546 0.965956
vt 0.283548 0.980058
vt 0.265246 0.978276
vt 0.265244 0.967743
vt 0.627087 0.663037
vt 0.627086 0.648935
vt 0.645388 0.650719
vt 0.645389 0.661251
vt 0.036741 0.367792
vt 0.008284 0.367790
vt 0.011887 0.349758
vt 0.033141 0.349759
vt 0.616877 0.637722
vt 0.616876 0.648255
vt 0.595622 0.648252
vt 0.595623 0.637719
vt 0.941769 0.124151
vt 0.972173 0.124153
vt 0.972290 0.152602
vt 0.941731 0.152599
vt 0.688580 0.678394
vt 0.702732 0.692465
vt 0.674283 0.692493
vt 0.674287 0.678391
vt 0.894534 0.213237
vt 0.908827 0.213354
vt 0.908832 0.243759
vt 0.894540 0.243796
vt 0.194063 0.349724
vt 0.190468 0.367757
vt 0.169214 0.367765
vt 0.165607 0.349734
vt 0.923254 0.213472
vt 0.923259 0.243721
vt 0.326546 0.936930
vt 0.326543 0.967180
vt 0.312441 0.967179
vt 0.312444 0.936929
vt 0.702733 0.663972
vt 0.688631 0.663967
vt 0.459277 0.938182
vt 0.489111 0.938185
vt 0.489109 0.952287
vt 0.459275 0.952284
vt 0.941806 0.095657
vt 0.972056 0.095660
vt 0.987298 0.927298
vt 0.985513 0.945600
vt 0.974980 0.945600
vt 0.973196 0.927298
vt 0.973196 0.927298
vt 0.974978 0.908996
vt 0.985511 0.908994
vt 0.987298 0.927296
vt 0.102678 0.367773
vt 0.106276 0.349740
vt 0.127530 0.349737
vt 0.131134 0.367769
vt 0.621888 0.966435
vt 0.621887 0.987689
vt 0.611354 0.987688
vt 0.611355 0.966434
vt 0.162599 0.349729
vt 0.159004 0.367763
vt 0.137750 0.367771
vt 0.134142 0.349740
vt 0.925509 0.008302
vt 0.925519 0.036776
vt 0.894545 0.036788
vt 0.894534 0.008313
vt 0.940100 0.008569
vt 0.940389 0.039542
vt 0.926288 0.039673
vt 0.925999 0.008700
vt 0.940101 0.230013
vt 0.940141 0.244362
vt 0.926015 0.258487
vt 0.925999 0.230012
vt 0.669040 0.692493
vt 0.699599 0.692496
vt 0.699598 0.706598
vt 0.669039 0.706595
vt 0.954449 0.008435
vt 0.954738 0.039408
vt 0.457645 0.966309
vt 0.455860 0.984611
vt 0.445328 0.984611
vt 0.443543 0.966309
vt 0.973196 0.908995
vt 0.974978 0.890693
vt 0.985511 0.890692
vt 0.987298 0.908993
vt 0.071213 0.367779
vt 0.074812 0.349746
vt 0.096066 0.349743
vt 0.099670 0.367775
vt 0.375416 0.966539
vt 0.375415 0.987793
vt 0.364882 0.987792
vt 0.364883 0.966538
vt 0.944113 0.095642
vt 0.915664 0.095820
vt 0.915511 0.065262
vt 0.943960 0.065239
vt 0.331785 0.684428
vt 0.331787 0.698721
vt 0.317685 0.698725
vt 0.317714 0.670276
vt 0.805387 0.290326
vt 0.805385 0.259767
vt 0.819678 0.259801
vt 0.819679 0.290205
vt 0.228536 0.349722
vt 0.256992 0.349712
vt 0.253398 0.367746
vt 0.232144 0.367754
vt 0.834106 0.290084
vt 0.834104 0.259834
vt 0.380618 0.936912
vt 0.394720 0.936914
vt 0.394716 0.967164
vt 0.380614 0.967162
vt 0.346208 0.670275
vt 0.346212 0.684377
vt 0.520574 0.937970
vt 0.520575 0.952072
vt 0.490742 0.952075
vt 0.490740 0.937973
vt 0.972454 0.065215
vt 0.972606 0.095464
vt 0.766002 0.966177
vt 0.766004 0.980279
vt 0.747702 0.978497
vt 0.747700 0.967964
vt 0.642820 0.979672
vt 0.642818 0.965570
vt 0.661120 0.967353
vt 0.661121 0.977886
vt 0.068205 0.367786
vt 0.039749 0.367784
vt 0.043351 0.349752
vt 0.064605 0.349753
vt 0.574925 0.697009
vt 0.574923 0.707542
vt 0.553669 0.707539
vt 0.553671 0.697006
vt 0.310813 0.654752
vt 0.310815 0.669080
vt 0.280981 0.669085
vt 0.280979 0.654757
vt 0.263841 0.685320
vt 0.249514 0.685334
vt 0.249512 0.671232
vt 0.277942 0.671202
vt 0.894534 0.152601
vt 0.922965 0.152601
vt 0.922965 0.182435
vt 0.894535 0.182435
vt 0.280977 0.640443
vt 0.310811 0.640438
vt 0.277920 0.699632
vt 0.263818 0.699634
vt 0.951395 0.152600
vt 0.951395 0.182434
vt 0.925529 0.065251
vt 0.894555 0.065262
vt 0.954491 0.244406
vt 0.954490 0.258508
vt 0.968799 0.008301
vt 0.969088 0.039274
s 1
usemtl castle_pillar
f 2/1/1 1/2/1 5/3/1 6/4/1
f 5/5/2 8/6/2 7/7/2 6/8/2
f 3/9/3 1/10/3 2/11/3 4/12/3
f 4/13/4 2/1/4 6/4/4 7/14/4
f 4/13/5 7/14/5 8/15/5 3/16/5
f 3/16/6 8/15/6 5/17/6 1/18/6
f 19/19/7 20/20/7 15/21/7 16/22/7
f 19/23/5 21/24/5 14/25/5 10/26/5
f 24/27/1 20/28/1 9/29/1 13/30/1
f 20/31/8 24/32/8 17/33/8 15/34/8
f 21/35/9 19/36/9 16/37/9 18/38/9
f 24/39/10 21/40/10 18/41/10 17/42/10
f 15/43/2 17/44/2 18/45/2 16/46/2
f 12/47/11 23/48/11 24/49/11 13/50/11
f 25/51/12 12/52/12 13/53/13 9/54/13
f 20/55/14 26/56/14 25/57/14 9/58/14
f 36/59/15 33/60/15 32/61/15 37/62/15
f 38/63/16 31/64/16 25/57/16 26/56/16
f 36/65/6 29/66/6 31/67/6 38/68/6
f 29/69/17 12/52/12 25/51/12 31/70/17
f 40/71/4 30/72/4 28/73/4 37/74/4
f 12/47/18 29/75/18 36/76/18 23/48/18
f 37/77/19 32/78/19 34/79/19 40/80/19
f 38/81/20 35/82/20 33/83/20 36/84/20
f 40/85/21 34/86/21 35/87/21 38/88/21
f 32/89/2 33/90/2 35/91/2 34/92/2
f 52/93/15 49/94/15 48/95/15 53/96/15
f 47/97/22 11/98/22 22/99/22 54/100/22
f 52/101/6 44/102/6 47/103/6 54/104/6
f 44/105/2 71/106/2 11/107/2 47/108/2
f 56/109/4 46/110/4 43/111/4 53/112/4
f 72/113/23 71/114/23 44/102/23 52/101/23
f 53/115/19 48/116/19 50/117/19 56/118/19
f 54/119/20 51/120/20 49/121/20 52/122/20
f 56/123/21 50/124/21 51/125/21 54/126/21
f 48/127/2 49/128/2 51/129/2 50/130/2
f 45/131/24 46/132/24 56/133/24 55/134/24
f 57/135/12 43/136/17 46/137/17 45/138/12
f 53/139/25 43/140/25 57/141/25 58/142/25
f 67/143/7 68/144/7 63/145/7 64/146/7
f 69/147/26 58/142/26 57/141/26 62/148/26
f 67/149/5 69/150/5 62/151/5 60/152/5
f 60/153/13 62/154/13 57/135/12 45/138/12
f 70/155/1 68/156/1 59/157/1 61/158/1
f 45/131/27 55/134/27 67/159/27 60/160/27
f 68/161/8 70/162/8 65/163/8 63/164/8
f 69/165/9 67/166/9 64/167/9 66/168/9
f 70/169/10 69/170/10 66/171/10 65/172/10
f 63/173/2 65/174/2 66/175/2 64/176/2
f 41/177/28 70/178/29 61/179/29 42/180/28
f 42/181/2 61/182/2 59/183/2 27/184/2
f 68/185/30 39/186/30 27/187/30 59/188/30
f 42/180/28 30/189/31 40/190/31 41/177/28
f 27/184/2 28/191/2 30/192/2 42/181/2
f 37/193/32 28/194/32 27/187/32 39/186/32
f 11/98/33 14/195/33 21/196/33 22/99/33
f 71/106/2 10/197/2 14/198/2 11/107/2
f 19/199/34 10/200/34 71/114/34 72/113/34
