# Blender 4.5.7 LTS
# www.blender.org
mtllib chair.mtl
o advanced_chair
v 0.061103 0.192027 -0.045389
v 0.060403 0.144097 -0.042461
v 0.064117 0.000305 -0.057992
v 0.051061 0.192027 -0.048153
v 0.050361 0.144097 -0.045224
v 0.054075 0.000305 -0.060759
v 0.053824 0.192027 -0.058193
v 0.063866 0.192027 -0.055428
v 0.063166 0.144097 -0.052502
v 0.053124 0.144097 -0.055265
v 0.066878 0.000305 -0.068028
v 0.056837 0.000305 -0.070795
v 0.055134 0.239957 -0.063672
v 0.052372 0.239957 -0.053636
v 0.065176 0.239957 -0.060906
v 0.062413 0.239957 -0.050869
v 0.056814 0.287225 -0.070697
v 0.054052 0.287222 -0.060660
v 0.066855 0.287222 -0.067929
v 0.064093 0.287225 -0.057894
v -0.056992 0.191663 -0.049864
v 0.056992 0.191663 -0.049864
v -0.056992 0.203630 -0.051607
v 0.056992 0.203630 -0.051607
v -0.056992 0.202721 -0.057845
v 0.056992 0.202721 -0.057845
v -0.056992 0.190755 -0.056102
v 0.056992 0.190755 -0.056102
v -0.055866 0.136925 -0.048736
v 0.055867 0.136925 -0.048736
v 0.055867 0.122342 -0.045406
v 0.055867 0.136925 -0.045406
v -0.055866 0.136925 -0.045406
v -0.055866 0.122342 -0.048736
v 0.055867 0.122342 -0.048736
v -0.055866 0.122342 -0.045406
v -0.056992 0.221415 -0.053079
v 0.056992 0.221415 -0.053079
v -0.056992 0.233381 -0.054822
v 0.056992 0.233381 -0.054822
v -0.056992 0.232473 -0.061060
v 0.056992 0.232473 -0.061060
v -0.056992 0.220506 -0.059317
v 0.056992 0.220506 -0.059317
v -0.060944 0.134209 0.072796
v 0.060944 0.134209 0.072796
v -0.060944 0.143835 0.072796
v 0.060944 0.143835 0.072796
v -0.060944 0.143835 -0.052172
v 0.060944 0.143835 -0.052172
v -0.060944 0.134209 -0.052172
v 0.060944 0.134209 -0.052172
v 0.059632 0.000173 0.069395
v 0.049632 0.000173 0.069395
v 0.059667 0.138784 0.069967
v 0.047828 0.138784 0.069967
v 0.059667 0.138784 0.058127
v 0.047828 0.138784 0.058127
v 0.059632 0.000173 0.059395
v 0.049632 0.000173 0.059395
v -0.061103 0.192027 -0.045389
v -0.060403 0.144097 -0.042461
v -0.064117 0.000305 -0.057992
v -0.051061 0.192027 -0.048153
v -0.050361 0.144097 -0.045224
v -0.054075 0.000305 -0.060759
v -0.053824 0.192027 -0.058193
v -0.063866 0.192027 -0.055428
v -0.063166 0.144097 -0.052502
v -0.053124 0.144097 -0.055265
v -0.066878 0.000305 -0.068028
v -0.056837 0.000305 -0.070795
v -0.055134 0.239957 -0.063672
v -0.052372 0.239957 -0.053636
v -0.065176 0.239957 -0.060906
v -0.062413 0.239957 -0.050869
v -0.056814 0.287225 -0.070697
v -0.054052 0.287222 -0.060660
v -0.066855 0.287222 -0.067929
v -0.064093 0.287225 -0.057894
v -0.059632 0.000173 0.069395
v -0.049632 0.000173 0.069395
v -0.059667 0.138784 0.069967
v -0.047828 0.138784 0.069967
v -0.059667 0.138784 0.058127
v -0.047828 0.138784 0.058127
v -0.059632 0.000173 0.059395
v -0.049632 0.000173 0.059395
v -0.051252 0.139808 0.063820
v 0.051252 0.139808 0.063820
v 0.051252 0.109189 0.067151
v 0.051252 0.139808 0.067151
v -0.051252 0.139808 0.067151
v -0.051252 0.109189 0.063820
v 0.051252 0.109189 0.063820
v -0.051252 0.109189 0.067151
v -0.054157 0.109189 0.060325
v -0.054157 0.109189 -0.050507
v -0.054157 0.139808 -0.050507
v -0.054157 0.139808 0.060325
v -0.057487 0.139808 0.060325
v -0.057487 0.139808 -0.050507
v -0.057487 0.109189 0.060325
v -0.057487 0.109189 -0.050507
v 0.057488 0.109189 -0.050507
v 0.057488 0.109189 0.060325
v 0.057488 0.139808 0.060325
v 0.057488 0.139808 -0.050507
v 0.054158 0.109189 -0.050507
v 0.054158 0.139808 -0.050507
v 0.054158 0.139808 0.060325
v 0.054158 0.109189 0.060325
v -0.076829 0.253021 -0.046373
v 0.076829 0.253021 -0.046373
v -0.076829 0.285896 -0.052797
v 0.076829 0.285896 -0.052797
v -0.076829 0.284687 -0.058984
v 0.076829 0.284687 -0.058984
v -0.076829 0.251812 -0.052559
v 0.076829 0.251812 -0.052559
vn -0.0000 -1.0000 -0.0000
vn -0.2626 0.1510 0.9530
vn 0.2626 -0.1509 -0.9530
vn -0.9642 0.0038 -0.2653
vn -0.9642 0.0008 -0.2653
vn -0.9642 0.0009 -0.2653
vn -0.9642 -0.0030 -0.2653
vn -0.9642 -0.0031 -0.2653
vn -0.2639 -0.1103 0.9582
vn -0.2649 0.0627 0.9622
vn 0.9642 -0.0009 0.2653
vn 0.9642 -0.0008 0.2653
vn 0.9642 -0.0038 0.2653
vn 0.9642 0.0031 0.2653
vn 0.9642 0.0030 0.2653
vn -0.2637 0.1167 0.9575
vn 0.9641 0.0046 0.2653
vn 0.9641 0.0052 0.2653
vn 0.9642 0.0045 0.2653
vn -0.9641 -0.0046 -0.2653
vn -0.9642 -0.0045 -0.2653
vn -0.9641 -0.0052 -0.2653
vn 0.2639 0.1103 -0.9582
vn 0.2649 -0.0626 -0.9622
vn 0.2637 -0.1167 -0.9575
vn -0.0000 1.0000 -0.0000
vn -0.0000 0.1441 0.9896
vn -0.0000 0.9896 -0.1441
vn -0.0000 -0.1441 -0.9896
vn -0.0000 -0.9896 0.1441
vn -0.0000 -0.0000 -1.0000
vn -0.0000 -0.0000 1.0000
vn 1.0000 -0.0000 -0.0000
vn -1.0000 -0.0000 -0.0000
vn -0.0000 -0.0041 1.0000
vn -0.0000 -0.0091 -1.0000
vn -0.9999 -0.0130 -0.0000
vn 1.0000 -0.0003 -0.0000
vn 0.2626 0.1510 0.9530
vn -0.2626 -0.1509 -0.9530
vn 0.9642 0.0038 -0.2653
vn 0.9642 0.0009 -0.2653
vn 0.9642 0.0008 -0.2653
vn 0.9642 -0.0030 -0.2653
vn 0.9642 -0.0031 -0.2653
vn 0.2639 -0.1103 0.9582
vn 0.2649 0.0627 0.9622
vn -0.9642 -0.0009 0.2653
vn -0.9642 -0.0038 0.2653
vn -0.9642 -0.0008 0.2653
vn -0.9642 0.0030 0.2653
vn -0.9642 0.0031 0.2653
vn 0.2637 0.1167 0.9575
vn -0.9641 0.0046 0.2653
vn -0.9642 0.0045 0.2653
vn -0.9641 0.0052 0.2653
vn 0.9641 -0.0046 -0.2653
vn 0.9641 -0.0052 -0.2653
vn 0.9642 -0.0045 -0.2653
vn -0.2639 0.1103 -0.9582
vn -0.2649 -0.0626 -0.9622
vn -0.2637 -0.1167 -0.9575
vn 0.9999 -0.0130 -0.0000
vn -1.0000 -0.0003 -0.0000
vn -0.0000 0.1918 0.9814
vn -0.0000 0.9814 -0.1918
vn -0.0000 -0.1918 -0.9814
vn -0.0000 -0.9814 0.1918
vt 0.955749 0.110295
vt 0.962143 0.087091
vt 0.985333 0.093473
vt 0.978939 0.116677
vt 0.905252 0.688837
vt 0.881543 0.688829
vt 0.877577 0.577235
vt 0.901286 0.577235
vt 0.950641 0.241413
vt 0.974348 0.241421
vt 0.970384 0.353015
vt 0.946675 0.353015
vt 0.666116 0.011403
vt 0.702676 0.349801
vt 0.679045 0.349801
vt 0.642498 0.011403
vt 0.695783 0.462601
vt 0.672156 0.462601
vt 0.905307 0.011403
vt 0.896539 0.350902
vt 0.872829 0.350902
vt 0.881599 0.011403
vt 0.898192 0.464069
vt 0.874483 0.464069
vt 0.730621 0.349801
vt 0.706991 0.349801
vt 0.743543 0.011403
vt 0.767161 0.011403
vt 0.737509 0.462601
vt 0.713881 0.462601
vt 0.750400 0.575400
vt 0.766928 0.686632
vt 0.743312 0.686640
vt 0.726779 0.575400
vt 0.659260 0.575400
vt 0.682881 0.575400
vt 0.666349 0.686632
vt 0.642730 0.686640
vt 0.950696 0.918846
vt 0.941929 0.579347
vt 0.965638 0.579347
vt 0.974404 0.918846
vt 0.943581 0.466181
vt 0.967291 0.466181
vt 0.960512 0.011389
vt 0.966907 0.034593
vt 0.943715 0.040975
vt 0.937322 0.017771
vt 0.375314 0.923390
vt 0.375314 0.658604
vt 0.403111 0.658604
vt 0.403111 0.923390
vt 0.292394 0.923391
vt 0.292394 0.658604
vt 0.306885 0.658604
vt 0.306885 0.923391
vt 0.803730 0.894685
vt 0.803730 0.629898
vt 0.831528 0.629898
vt 0.831528 0.894685
vt 0.310821 0.923391
vt 0.310821 0.658604
vt 0.325311 0.658604
vt 0.325311 0.923391
vt 0.195655 0.556298
vt 0.229355 0.556298
vt 0.229355 0.814494
vt 0.195655 0.814494
vt 0.045090 0.814494
vt 0.011390 0.814494
vt 0.011390 0.556298
vt 0.045090 0.556298
vt 0.710080 0.021698
vt 0.710080 0.279894
vt 0.702384 0.279894
vt 0.702384 0.021698
vt 0.048243 0.821084
vt 0.048243 0.556298
vt 0.076041 0.556298
vt 0.076041 0.821084
vt 0.329247 0.923391
vt 0.329247 0.658604
vt 0.343738 0.658604
vt 0.343738 0.923391
vt 0.260148 0.885280
vt 0.260148 0.620493
vt 0.287946 0.620493
vt 0.287946 0.885280
vt 0.430593 0.923391
vt 0.430593 0.658604
vt 0.445083 0.658604
vt 0.445083 0.923391
vt 0.711597 0.040854
vt 0.726012 0.038754
vt 0.730040 0.066406
vt 0.715625 0.068506
vt 0.407560 0.940265
vt 0.407560 0.658604
vt 0.429805 0.658604
vt 0.429805 0.940265
vt 0.011390 0.011403
vt 0.293051 0.011403
vt 0.293051 0.300184
vt 0.011390 0.300184
vt 0.582612 0.910084
vt 0.582612 0.628423
vt 0.604857 0.628423
vt 0.604857 0.910084
vt 0.297001 0.011403
vt 0.578662 0.011403
vt 0.578662 0.300183
vt 0.297001 0.300183
vt 0.527332 0.909280
vt 0.527332 0.620499
vt 0.549577 0.620499
vt 0.549577 0.909280
vt 0.232508 0.909279
vt 0.232508 0.620499
vt 0.254753 0.620499
vt 0.254753 0.909279
vt 0.287426 0.300184
vt 0.287507 0.620493
vt 0.264317 0.300184
vt 0.609971 0.011403
vt 0.609971 0.038762
vt 0.582612 0.038762
vt 0.582612 0.011403
vt 0.259868 0.300184
vt 0.259787 0.620499
vt 0.236678 0.620499
vt 0.232508 0.300184
vt 0.831445 0.090160
vt 0.831445 0.113269
vt 0.808337 0.113269
vt 0.808337 0.090160
vt 0.783702 0.139724
vt 0.785024 0.460046
vt 0.757664 0.460046
vt 0.760593 0.139724
vt 0.717601 0.523516
vt 0.720530 0.843825
vt 0.693171 0.843825
vt 0.694493 0.523516
vt 0.937322 0.068490
vt 0.960513 0.062108
vt 0.966907 0.085311
vt 0.943716 0.091694
vt 0.836032 0.688837
vt 0.839998 0.577235
vt 0.863706 0.577235
vt 0.859740 0.688829
vt 0.933446 0.011403
vt 0.937411 0.123004
vt 0.913703 0.123004
vt 0.909738 0.011411
vt 0.614565 0.011403
vt 0.638183 0.011403
vt 0.601636 0.349801
vt 0.578005 0.349801
vt 0.584898 0.462601
vt 0.608525 0.462601
vt 0.835976 0.011403
vt 0.859684 0.011403
vt 0.868454 0.350902
vt 0.844744 0.350902
vt 0.843092 0.464069
vt 0.866801 0.464069
vt 0.808023 0.349801
vt 0.771483 0.011403
vt 0.795101 0.011403
vt 0.831654 0.349801
vt 0.824763 0.462601
vt 0.801136 0.462601
vt 0.788244 0.575400
vt 0.811865 0.575400
vt 0.795333 0.686640
vt 0.771716 0.686632
vt 0.621421 0.575400
vt 0.637951 0.686640
vt 0.614333 0.686632
vt 0.597800 0.575400
vt 0.933390 0.688836
vt 0.909682 0.688836
vt 0.918448 0.349337
vt 0.942158 0.349337
vt 0.916796 0.236170
vt 0.940505 0.236170
vt 0.978938 0.065958
vt 0.955749 0.059576
vt 0.962142 0.036372
vt 0.985333 0.042754
vt 0.555054 0.425780
vt 0.578162 0.425780
vt 0.582332 0.746089
vt 0.554972 0.746089
vt 0.711597 0.011403
vt 0.738957 0.011403
vt 0.738957 0.038762
vt 0.711597 0.038762
vt 0.527332 0.300183
vt 0.554692 0.300183
vt 0.550523 0.620499
vt 0.527414 0.620499
vt 0.941929 0.114108
vt 0.965037 0.114108
vt 0.965037 0.137216
vt 0.941929 0.137216
vt 0.630000 0.139697
vt 0.653109 0.139697
vt 0.656039 0.460019
vt 0.628678 0.460019
vt 0.170945 0.556298
vt 0.194053 0.556298
vt 0.195375 0.876606
vt 0.168015 0.876606
vt 0.453626 0.556298
vt 0.524381 0.556298
vt 0.524381 0.793169
vt 0.453626 0.793169
vt 0.165064 0.793169
vt 0.094309 0.793169
vt 0.094309 0.556298
vt 0.165064 0.556298
vt 0.627160 0.184386
vt 0.627160 0.421257
vt 0.619465 0.421257
vt 0.619465 0.184386
vt 0.229557 0.556298
vt 0.158802 0.556298
vt 0.158802 0.300184
vt 0.229557 0.300184
vt 0.155851 0.300184
vt 0.155851 0.556297
vt 0.085096 0.556298
vt 0.085096 0.300184
vt 0.748450 0.184351
vt 0.756146 0.184351
vt 0.756146 0.440466
vt 0.748450 0.440466
vt 0.912772 0.145761
vt 0.912772 0.401875
vt 0.905076 0.401875
vt 0.905076 0.145761
vt 0.524381 0.556298
vt 0.453626 0.300183
vt 0.524381 0.300183
vt 0.082145 0.556298
vt 0.082145 0.300184
vt 0.297001 0.658604
vt 0.373685 0.300183
vt 0.373685 0.658604
vt 0.674744 0.988323
vt 0.674744 0.629903
vt 0.689175 0.629903
vt 0.689175 0.988323
vt 0.375314 0.300183
vt 0.451998 0.300183
vt 0.451998 0.658604
vt 0.974175 0.603703
vt 0.974175 0.245282
vt 0.988606 0.245282
vt 0.988606 0.603703
vt 0.799123 0.014195
vt 0.813419 0.011401
vt 0.828266 0.087370
vt 0.813970 0.090164
vt 0.689591 0.011399
vt 0.703887 0.014193
vt 0.689040 0.090162
vt 0.674744 0.087368
s 1
usemtl advanced_chair1
f 12/1/1 11/2/1 3/3/1 6/4/1
f 20/5/2 18/6/2 14/7/2 16/8/2
f 17/9/3 19/10/3 15/11/3 13/12/3
f 6/13/4 5/14/5 10/15/6 12/16/4
f 4/17/7 7/18/8 10/15/6 5/14/5
f 3/19/9 2/20/9 5/21/9 6/22/9
f 1/23/10 4/24/10 5/21/10 2/20/10
f 9/25/11 2/26/12 3/27/13 11/28/13
f 9/25/11 8/29/14 1/30/15 2/26/12
f 16/8/16 14/7/16 4/24/16 1/23/16
f 15/31/17 19/32/18 20/33/18 16/34/19
f 13/35/20 14/36/21 18/37/22 17/38/22
f 12/39/23 10/40/23 9/41/23 11/42/23
f 10/40/24 7/43/24 8/44/24 9/41/24
f 4/17/7 14/36/21 13/35/20 7/18/8
f 7/43/25 13/12/25 15/11/25 8/44/25
f 8/29/14 15/31/17 16/34/19 1/30/15
f 19/45/26 17/46/26 18/47/26 20/48/26
f 21/49/27 22/50/27 24/51/27 23/52/27
f 23/53/28 24/54/28 26/55/28 25/56/28
f 25/57/29 26/58/29 28/59/29 27/60/29
f 27/61/30 28/62/30 22/63/30 21/64/30
f 30/65/31 35/66/31 34/67/31 29/68/31
f 33/69/32 36/70/32 31/71/32 32/72/32
f 31/73/1 36/74/1 34/75/1 35/76/1
f 37/77/27 38/78/27 40/79/27 39/80/27
f 39/81/28 40/82/28 42/83/28 41/84/28
f 41/85/29 42/86/29 44/87/29 43/88/29
f 43/89/30 44/90/30 38/91/30 37/92/30
f 38/93/33 44/94/33 42/95/33 40/96/33
f 45/97/32 46/98/32 48/99/32 47/100/32
f 47/101/26 48/102/26 50/103/26 49/104/26
f 49/105/31 50/106/31 52/107/31 51/108/31
f 51/109/1 52/110/1 46/111/1 45/112/1
f 46/113/33 52/114/33 50/115/33 48/116/33
f 51/117/34 45/118/34 47/119/34 49/120/34
f 53/121/35 55/122/35 56/86/35 54/123/35
f 55/124/26 57/125/26 58/126/26 56/127/26
f 57/128/36 59/129/36 60/130/36 58/131/36
f 59/132/1 53/133/1 54/134/1 60/135/1
f 54/136/37 56/137/37 58/138/37 60/139/37
f 59/140/38 57/141/38 55/142/38 53/143/38
f 72/144/1 66/145/1 63/146/1 71/147/1
f 80/148/39 76/149/39 74/150/39 78/151/39
f 77/152/40 73/153/40 75/154/40 79/155/40
f 66/156/41 72/157/41 70/158/42 65/159/43
f 64/160/44 65/159/43 70/158/42 67/161/45
f 63/162/46 66/163/46 65/164/46 62/165/46
f 61/166/47 62/165/47 65/164/47 64/167/47
f 69/168/48 71/169/49 63/170/49 62/171/50
f 69/168/48 62/171/50 61/172/51 68/173/52
f 76/149/53 61/166/53 64/167/53 74/150/53
f 75/174/54 76/175/55 80/176/56 79/177/56
f 73/178/57 77/179/58 78/180/58 74/181/59
f 72/182/60 71/183/60 69/184/60 70/185/60
f 70/185/61 69/184/61 68/186/61 67/187/61
f 64/160/44 67/161/45 73/178/57 74/181/59
f 67/187/62 68/186/62 75/154/62 73/153/62
f 68/173/52 61/172/51 76/175/55 75/174/54
f 79/188/26 80/189/26 78/190/26 77/191/26
f 81/192/35 82/193/35 84/194/35 83/195/35
f 83/196/26 84/197/26 86/198/26 85/199/26
f 85/200/36 86/201/36 88/202/36 87/203/36
f 87/204/1 88/205/1 82/206/1 81/207/1
f 82/208/63 88/209/63 86/210/63 84/211/63
f 87/212/64 81/213/64 83/214/64 85/215/64
f 90/216/31 95/217/31 94/218/31 89/219/31
f 93/220/32 96/221/32 91/222/32 92/223/32
f 91/224/1 96/225/1 94/226/1 95/227/1
f 100/228/33 97/229/33 98/230/33 99/231/33
f 101/232/34 102/233/34 104/234/34 103/235/34
f 104/236/1 98/237/1 97/238/1 103/239/1
f 105/240/1 106/241/1 112/242/1 109/243/1
f 107/244/33 106/216/33 105/245/33 108/246/33
f 110/247/34 109/71/34 112/104/34 111/248/34
f 113/249/65 114/112/65 116/250/65 115/251/65
f 115/252/66 116/253/66 118/254/66 117/255/66
f 117/50/67 118/256/67 120/257/67 119/258/67
f 119/259/68 120/260/68 114/261/68 113/262/68
f 114/263/33 120/264/33 118/265/33 116/266/33
f 119/267/34 113/268/34 115/269/34 117/270/34
