# Blender 4.5.7 LTS
# www.blender.org
mtllib wall.mtl
o castlewall
v 0.092258 0.139237 -0.018903
v 0.110713 0.139237 -0.018903
v 0.110713 0.139237 -0.009233
v 0.092258 0.139237 -0.009233
v 0.092258 0.120334 -0.018903
v 0.092258 0.120334 -0.009233
v 0.110713 0.120334 -0.009233
v 0.110713 0.120334 -0.018903
v 0.055347 0.139237 -0.018903
v 0.073803 0.139237 -0.018903
v 0.073803 0.139237 -0.009233
v 0.055347 0.139237 -0.009233
v 0.073803 0.120334 -0.018903
v 0.055347 0.120334 -0.018903
v 0.073803 0.120334 -0.009233
v 0.055347 0.120334 -0.009233
v 0.018474 0.139237 -0.018903
v 0.036929 0.139237 -0.018903
v 0.036929 0.139237 -0.009233
v 0.018474 0.139237 -0.009233
v 0.036911 0.120334 -0.009233
v 0.036911 0.120334 -0.018903
v 0.018474 0.120334 -0.018903
v 0.018474 0.120334 -0.009233
v -0.018437 0.139237 -0.018903
v 0.000019 0.139237 -0.018903
v 0.000019 0.139237 -0.009233
v -0.018437 0.139237 -0.009233
v 0.000019 0.120334 -0.009233
v 0.000019 0.120334 -0.018903
v -0.018437 0.120334 -0.018903
v -0.018437 0.120334 -0.009233
v -0.055347 0.139237 -0.018903
v -0.036892 0.139237 -0.018903
v -0.036892 0.139237 -0.009233
v -0.055347 0.139237 -0.009233
v -0.055347 0.120334 -0.018903
v -0.055347 0.120334 -0.009233
v -0.036892 0.120334 -0.009233
v -0.036892 0.120334 -0.018903
v -0.092258 0.139237 -0.018903
v -0.073803 0.139237 -0.018903
v -0.073803 0.139237 -0.009233
v -0.092258 0.139237 -0.009233
v -0.073803 0.120334 -0.018903
v -0.092258 0.120334 -0.018903
v -0.073803 0.120334 -0.009233
v -0.092258 0.120334 -0.009233
v 0.110713 0.140028 0.037359
v 0.092258 0.140028 0.037359
v 0.073803 0.140302 0.037359
v 0.055347 0.140302 0.037359
v 0.110713 0.140028 0.028061
v 0.092258 0.140028 0.028061
v 0.073803 0.140302 0.028061
v 0.055347 0.140302 0.028061
v 0.089923 0.131711 0.036182
v 0.076138 0.131711 0.036182
v 0.053012 0.131985 0.036182
v 0.039228 0.131985 0.036182
v 0.089923 0.131711 0.029238
v 0.076138 0.131711 0.029238
v 0.053012 0.131985 0.029238
v 0.039228 0.131985 0.029238
v 0.036929 0.139952 0.037359
v 0.018474 0.139952 0.037359
v 0.000019 0.140028 0.037359
v -0.018437 0.140028 0.037359
v -0.036892 0.140028 0.037359
v -0.055347 0.140028 0.037359
v -0.073803 0.140302 0.037359
v -0.092258 0.140302 0.037359
v 0.036929 0.139952 0.028061
v 0.018474 0.139952 0.028061
v 0.000019 0.140028 0.028061
v -0.018437 0.140028 0.028061
v -0.036892 0.140028 0.028061
v -0.055347 0.140028 0.028061
v -0.073803 0.140302 0.028061
v -0.092258 0.140302 0.028061
v 0.016139 0.131635 0.036182
v 0.002354 0.131635 0.036182
v -0.020772 0.131711 0.036182
v -0.034556 0.131711 0.036182
v -0.057683 0.131711 0.036182
v -0.071467 0.131711 0.036182
v -0.094594 0.131985 0.036182
v -0.108378 0.131985 0.036182
v 0.016139 0.131635 0.029238
v 0.002354 0.131635 0.029238
v -0.020772 0.131711 0.029238
v -0.034556 0.131711 0.029238
v -0.057683 0.131711 0.029238
v -0.071467 0.131711 0.029238
v -0.094594 0.131985 0.029238
v -0.108378 0.131985 0.029238
v 0.073803 0.119744 0.037359
v 0.092258 0.119744 0.037359
v 0.073803 0.119744 0.028061
v 0.055347 0.120018 0.028061
v 0.110713 0.119744 0.037359
v 0.055347 0.120018 0.037359
v 0.110713 0.119744 0.028061
v 0.092258 0.119744 0.028061
v 0.036911 0.119843 0.037359
v 0.036911 0.119843 0.028061
v -0.073803 0.119744 0.037359
v -0.055347 0.119744 0.037359
v -0.073803 0.119744 0.028061
v -0.092258 0.120018 0.028061
v 0.018474 0.119668 0.037359
v 0.018474 0.119668 0.028061
v 0.000019 0.119744 0.028061
v -0.018437 0.119744 0.037359
v 0.000019 0.119744 0.037359
v -0.036892 0.119744 0.037359
v -0.018437 0.119744 0.028061
v -0.092258 0.120018 0.037359
v -0.036892 0.119744 0.028061
v -0.055347 0.119744 0.028061
v -0.110713 0.120018 0.037359
v -0.110713 0.120018 0.028061
v 0.110711 -0.000036 -0.018903
v -0.110713 -0.000036 -0.018903
v -0.110713 0.120551 -0.018903
v 0.110711 0.120551 -0.018903
v -0.110713 -0.000036 0.037359
v 0.110711 -0.000036 0.037359
v 0.110711 0.120551 0.037359
v -0.110713 0.120551 0.037359
vn -1.0000 -0.0000 -0.0000
vn -0.0000 -0.0000 1.0000
vn 1.0000 -0.0000 -0.0000
vn -0.0000 -0.0000 -1.0000
vn -0.0000 1.0000 -0.0000
vn -0.0000 0.2122 0.9772
vn 0.9183 0.3958 -0.0000
vn -0.9183 0.3958 -0.0000
vn -0.0000 0.2122 -0.9772
vn -0.9183 0.3959 -0.0000
vn -0.9163 0.4006 -0.0000
vn 0.0005 0.2136 -0.9769
vn 0.0005 0.2136 0.9769
vn -0.0000 -1.0000 -0.0000
vt 0.720421 0.967007
vt 0.705752 0.967009
vt 0.705747 0.938336
vt 0.720416 0.938334
vt 0.214582 0.703131
vt 0.186589 0.703136
vt 0.186583 0.674463
vt 0.214576 0.674458
vt 0.232720 0.969611
vt 0.218051 0.969613
vt 0.218048 0.940941
vt 0.232717 0.940939
vt 0.157574 0.806581
vt 0.157571 0.834574
vt 0.128898 0.834571
vt 0.128901 0.806578
vt 0.747702 0.764689
vt 0.762370 0.764690
vt 0.762369 0.792683
vt 0.747700 0.792682
vt 0.744911 0.764692
vt 0.744908 0.792685
vt 0.716236 0.792682
vt 0.716239 0.764689
vt 0.898718 0.974278
vt 0.884050 0.974280
vt 0.884046 0.945607
vt 0.898715 0.945605
vt 0.683712 0.967009
vt 0.669043 0.967011
vt 0.669039 0.938338
vt 0.683708 0.938336
vt 0.765210 0.764686
vt 0.737217 0.764691
vt 0.737212 0.736018
vt 0.765205 0.736013
vt 0.459277 0.952285
vt 0.473946 0.952286
vt 0.473944 0.980279
vt 0.459275 0.980278
vt 0.762378 0.966422
vt 0.747709 0.966427
vt 0.747700 0.937754
vt 0.762369 0.937750
vt 0.746642 0.967005
vt 0.731973 0.967007
vt 0.731968 0.938334
vt 0.746637 0.938332
vt 0.131350 0.835280
vt 0.131353 0.863245
vt 0.102680 0.863247
vt 0.102678 0.835254
vt 0.925999 0.095756
vt 0.940668 0.095755
vt 0.940670 0.123748
vt 0.926001 0.123749
vt 0.125427 0.891920
vt 0.097462 0.891920
vt 0.097434 0.863247
vt 0.125427 0.863247
vt 0.699445 0.966592
vt 0.684776 0.966595
vt 0.684771 0.937922
vt 0.699440 0.937920
vt 0.930182 0.974278
vt 0.915513 0.974279
vt 0.915511 0.945606
vt 0.930180 0.945605
vt 0.162815 0.834574
vt 0.162817 0.862567
vt 0.134144 0.862569
vt 0.134142 0.834576
vt 0.779165 0.344161
vt 0.793833 0.344160
vt 0.793835 0.372153
vt 0.779167 0.372154
vt 0.125432 0.835250
vt 0.097438 0.835255
vt 0.097434 0.806582
vt 0.125427 0.806578
vt 0.783350 0.967003
vt 0.768681 0.967006
vt 0.768676 0.938333
vt 0.783345 0.938330
vt 0.665573 0.707064
vt 0.637580 0.707069
vt 0.637574 0.678397
vt 0.665568 0.678391
vt 0.201256 0.969611
vt 0.186587 0.969613
vt 0.186583 0.940941
vt 0.201252 0.940939
vt 0.776376 0.344163
vt 0.776373 0.372156
vt 0.747700 0.372153
vt 0.747703 0.344160
vt 0.490741 0.952075
vt 0.505410 0.952076
vt 0.505409 0.980069
vt 0.490740 0.980069
vt 0.792108 0.764689
vt 0.792105 0.792683
vt 0.763432 0.792679
vt 0.763435 0.764686
vt 0.914450 0.974278
vt 0.899781 0.974279
vt 0.899779 0.945606
vt 0.914447 0.945605
vt 0.667980 0.966593
vt 0.653311 0.966595
vt 0.653307 0.937923
vt 0.667975 0.937920
vt 0.733746 0.764686
vt 0.705752 0.764691
vt 0.705747 0.736018
vt 0.733741 0.736013
vt 0.506474 0.952073
vt 0.521143 0.952074
vt 0.521141 0.980067
vt 0.506472 0.980067
vt 0.214576 0.910174
vt 0.186583 0.910169
vt 0.190129 0.891930
vt 0.211037 0.891934
vt 0.883764 0.287758
vt 0.883354 0.315752
vt 0.852587 0.315758
vt 0.852582 0.287764
vt 0.200685 0.940939
vt 0.186583 0.940936
vt 0.186589 0.910170
vt 0.200691 0.910172
vt 0.394718 0.936912
vt 0.380616 0.936912
vt 0.380614 0.905730
vt 0.394716 0.905729
vt 0.973200 0.057775
vt 0.987302 0.057777
vt 0.987298 0.085771
vt 0.973196 0.085768
vt 0.225065 0.585865
vt 0.197071 0.585860
vt 0.197077 0.555093
vt 0.225070 0.555098
vt 0.232150 0.940939
vt 0.218048 0.940937
vt 0.218052 0.910170
vt 0.232155 0.910172
vt 0.649835 0.402929
vt 0.621842 0.403340
vt 0.621848 0.372157
vt 0.649841 0.372162
vt 0.259307 0.585487
vt 0.259302 0.613480
vt 0.228536 0.613475
vt 0.228540 0.585482
vt 0.022390 0.940955
vt 0.008288 0.940957
vt 0.008284 0.910190
vt 0.022386 0.910189
vt 0.973200 0.008302
vt 0.987302 0.008304
vt 0.987298 0.036297
vt 0.973196 0.036295
vt 0.635093 0.691547
vt 0.635092 0.705649
vt 0.616598 0.703863
vt 0.616598 0.693331
vt 0.614117 0.623621
vt 0.614116 0.637723
vt 0.595622 0.635937
vt 0.595622 0.625404
vt 0.987298 0.597034
vt 0.973196 0.597033
vt 0.974983 0.578538
vt 0.985515 0.578540
vt 0.974941 0.057775
vt 0.946975 0.057769
vt 0.950349 0.039498
vt 0.971257 0.039305
vt 0.078964 0.891945
vt 0.078966 0.919939
vt 0.060726 0.916397
vt 0.060725 0.895489
vt 0.919125 0.145544
vt 0.905023 0.145545
vt 0.906806 0.126795
vt 0.917339 0.126794
vt 0.978443 0.190660
vt 0.988976 0.190662
vt 0.988973 0.211570
vt 0.978440 0.211568
vt 0.939204 0.124355
vt 0.939228 0.152321
vt 0.920755 0.148648
vt 0.920935 0.127740
vt 0.978443 0.211569
vt 0.988976 0.211571
vt 0.988973 0.232479
vt 0.978440 0.232477
vt 0.246041 0.910174
vt 0.218048 0.910169
vt 0.221594 0.891930
vt 0.242502 0.891934
vt 0.868032 0.259767
vt 0.867622 0.287760
vt 0.836855 0.287767
vt 0.836850 0.259773
vt 0.216418 0.940941
vt 0.202315 0.940939
vt 0.202320 0.910173
vt 0.216422 0.910175
vt 0.987298 0.652345
vt 0.973196 0.652343
vt 0.974983 0.633962
vt 0.985516 0.633964
vt 0.702279 0.617791
vt 0.674314 0.617528
vt 0.674283 0.587027
vt 0.702276 0.587024
vt 0.987298 0.615529
vt 0.973196 0.615528
vt 0.974983 0.597033
vt 0.985515 0.597035
vt 0.746737 0.344184
vt 0.747007 0.372148
vt 0.716240 0.372153
vt 0.716236 0.344160
vt 0.435548 0.904213
vt 0.435546 0.932207
vt 0.417407 0.928737
vt 0.417323 0.907829
vt 0.442580 0.932212
vt 0.442585 0.946314
vt 0.412084 0.946324
vt 0.412079 0.932222
vt 0.473378 0.938183
vt 0.459275 0.938180
vt 0.459281 0.907414
vt 0.473384 0.907416
vt 0.247882 0.940941
vt 0.233780 0.940940
vt 0.233784 0.910173
vt 0.247886 0.910175
vt 0.352764 0.936929
vt 0.338662 0.936930
vt 0.338662 0.905747
vt 0.352764 0.905747
vt 0.973200 0.085769
vt 0.987302 0.085771
vt 0.987298 0.113765
vt 0.973196 0.113762
vt 0.681300 0.587026
vt 0.653307 0.587021
vt 0.653312 0.556254
vt 0.681305 0.556259
vt 0.148244 0.947956
vt 0.134142 0.947955
vt 0.134145 0.917189
vt 0.148247 0.917190
vt 0.071213 0.953483
vt 0.085315 0.953480
vt 0.085321 0.981473
vt 0.071218 0.981476
vt 0.649835 0.587406
vt 0.621842 0.587401
vt 0.621848 0.556634
vt 0.649841 0.556640
vt 0.217354 0.585864
vt 0.217350 0.613858
vt 0.186583 0.613853
vt 0.186588 0.585859
vt 0.127268 0.947635
vt 0.113166 0.947633
vt 0.113169 0.916867
vt 0.127271 0.916868
vt 0.868319 0.958512
vt 0.882421 0.958515
vt 0.882416 0.986508
vt 0.868314 0.986506
vt 0.849110 0.320964
vt 0.821117 0.321375
vt 0.821123 0.290192
vt 0.849116 0.290198
vt 0.883353 0.315763
vt 0.883348 0.343756
vt 0.852582 0.343751
vt 0.852586 0.315758
vt 0.038122 0.940957
vt 0.024020 0.940959
vt 0.024017 0.910193
vt 0.038119 0.910191
vt 0.852587 0.957017
vt 0.866689 0.957019
vt 0.866684 0.985012
vt 0.852582 0.985010
vt 0.703266 0.648556
vt 0.703265 0.662658
vt 0.684771 0.660872
vt 0.684772 0.650339
vt 0.257519 0.687439
vt 0.257518 0.701541
vt 0.239024 0.699755
vt 0.239024 0.689223
vt 0.944493 0.213407
vt 0.944494 0.227510
vt 0.926000 0.225726
vt 0.925999 0.215193
vt 0.409597 0.965890
vt 0.409597 0.979992
vt 0.391102 0.978206
vt 0.391103 0.967673
vt 0.876065 0.899962
vt 0.876067 0.927955
vt 0.857827 0.924414
vt 0.857826 0.903505
vt 0.987298 0.578539
vt 0.973196 0.578537
vt 0.974983 0.560043
vt 0.985515 0.560044
vt 0.627086 0.967932
vt 0.637619 0.967930
vt 0.637623 0.988838
vt 0.627090 0.988840
vt 0.036278 0.910191
vt 0.008284 0.910186
vt 0.011830 0.891947
vt 0.032738 0.891951
vt 0.057988 0.891945
vt 0.057990 0.919939
vt 0.039750 0.916397
vt 0.039749 0.895489
vt 0.987298 0.560044
vt 0.973196 0.560042
vt 0.974983 0.541548
vt 0.985515 0.541549
vt 0.978443 0.036297
vt 0.988976 0.036298
vt 0.988973 0.057206
vt 0.978440 0.057205
vt 0.301953 0.967181
vt 0.312486 0.967179
vt 0.312490 0.988087
vt 0.301957 0.988089
vt 0.826361 0.904439
vt 0.854355 0.904436
vt 0.850740 0.922661
vt 0.829832 0.922578
vt 0.414587 0.904229
vt 0.414586 0.932222
vt 0.396346 0.928679
vt 0.396347 0.907771
vt 0.978443 0.169751
vt 0.988976 0.169753
vt 0.988973 0.190661
vt 0.978440 0.190659
vt 0.794897 0.904437
vt 0.822890 0.904436
vt 0.819348 0.922675
vt 0.798440 0.922676
vt 0.705366 0.793335
vt 0.369507 0.793401
vt 0.369491 0.708062
vt 0.705349 0.707997
vt 0.344143 0.372157
vt 0.344178 0.555065
vt 0.008319 0.555129
vt 0.008284 0.372222
vt 0.532057 0.708030
vt 0.349150 0.708016
vt 0.349177 0.372157
vt 0.532084 0.372172
vt 0.801575 0.008302
vt 0.801574 0.344160
vt 0.716236 0.344160
vt 0.716236 0.008302
vt 0.186600 0.793437
vt 0.186583 0.708098
vt 0.794261 0.793341
vt 0.794267 0.878680
vt 0.611360 0.878693
vt 0.611354 0.793354
s 1
usemtl castle_wall
f 5/1/1 6/2/1 4/3/1 1/4/1
f 6/5/2 7/6/2 3/7/2 4/8/2
f 7/9/3 8/10/3 2/11/3 3/12/3
f 8/13/4 5/14/4 1/15/4 2/16/4
f 3/17/5 2/18/5 1/19/5 4/20/5
f 13/21/4 14/22/4 9/23/4 10/24/4
f 15/25/3 13/26/3 10/27/3 11/28/3
f 14/29/1 16/30/1 12/31/1 9/32/1
f 16/33/2 15/34/2 11/35/2 12/36/2
f 11/37/5 10/38/5 9/39/5 12/40/5
f 21/41/3 22/42/3 18/43/3 19/44/3
f 23/45/1 24/46/1 20/47/1 17/48/1
f 22/49/4 23/50/4 17/51/4 18/52/4
f 19/53/5 18/54/5 17/55/5 20/56/5
f 24/57/2 21/58/2 19/59/2 20/60/2
f 29/61/3 30/62/3 26/63/3 27/64/3
f 31/65/1 32/66/1 28/67/1 25/68/1
f 30/69/4 31/70/4 25/71/4 26/72/4
f 27/73/5 26/74/5 25/75/5 28/76/5
f 32/77/2 29/78/2 27/79/2 28/80/2
f 37/81/1 38/82/1 36/83/1 33/84/1
f 38/85/2 39/86/2 35/87/2 36/88/2
f 39/89/3 40/90/3 34/91/3 35/92/3
f 40/93/4 37/94/4 33/95/4 34/96/4
f 35/97/5 34/98/5 33/99/5 36/100/5
f 45/101/4 46/102/4 41/103/4 42/104/4
f 47/105/3 45/106/3 42/107/3 43/108/3
f 46/109/1 48/110/1 44/111/1 41/112/1
f 48/113/2 47/114/2 43/115/2 44/116/2
f 43/117/5 42/118/5 41/119/5 44/120/5
f 97/121/6 98/122/6 57/123/6 58/124/6
f 99/125/4 100/126/4 56/127/4 55/128/4
f 101/129/3 103/130/3 53/131/3 49/132/3
f 97/133/3 99/134/3 55/135/3 51/136/3
f 51/137/5 55/138/5 56/139/5 52/140/5
f 98/141/2 101/142/2 49/143/2 50/144/2
f 104/145/1 98/146/1 50/147/1 54/148/1
f 102/149/2 97/150/2 51/151/2 52/152/2
f 103/153/4 104/154/4 54/155/4 53/156/4
f 100/157/1 102/158/1 52/159/1 56/160/1
f 49/161/5 53/162/5 54/163/5 50/164/5
f 98/165/7 104/166/7 61/167/7 57/168/7
f 102/169/7 100/170/7 63/171/7 59/172/7
f 99/173/8 97/174/8 58/175/8 62/176/8
f 105/177/6 102/178/6 59/179/6 60/180/6
f 104/181/9 99/182/9 62/183/9 61/184/9
f 106/185/10 105/186/10 60/187/10 64/188/10
f 57/189/5 61/190/5 62/191/5 58/192/5
f 100/193/9 106/194/9 64/195/9 63/196/9
f 59/197/5 63/198/5 64/199/5 60/200/5
f 107/201/6 108/202/6 85/203/6 86/204/6
f 109/205/4 110/206/4 80/207/4 79/208/4
f 112/209/1 111/210/1 66/211/1 74/212/1
f 113/213/11 115/214/11 82/215/11 90/216/11
f 111/217/2 105/218/2 65/219/2 66/220/2
f 119/221/8 116/222/8 84/223/8 92/224/8
f 106/225/4 112/226/4 74/227/4 73/228/4
f 112/229/12 113/230/12 90/231/12 89/232/12
f 105/233/3 106/234/3 73/235/3 65/236/3
f 115/237/3 113/238/3 75/239/3 67/240/3
f 116/241/3 119/242/3 77/243/3 69/244/3
f 107/245/3 109/246/3 79/247/3 71/248/3
f 71/249/5 79/250/5 80/251/5 72/252/5
f 114/253/2 115/254/2 67/255/2 68/256/2
f 117/257/1 114/258/1 68/259/1 76/260/1
f 65/261/5 73/262/5 74/263/5 66/264/5
f 108/265/2 116/266/2 69/267/2 70/268/2
f 113/269/4 117/270/4 76/271/4 75/272/4
f 120/273/1 108/274/1 70/275/1 78/276/1
f 67/277/5 75/278/5 76/279/5 68/280/5
f 118/281/2 107/282/2 71/283/2 72/284/2
f 119/285/4 120/286/4 78/287/4 77/288/4
f 110/289/1 118/290/1 72/291/1 80/292/1
f 69/293/5 77/294/5 78/295/5 70/296/5
f 111/297/7 112/298/7 89/299/7 81/300/7
f 114/301/7 117/302/7 91/303/7 83/304/7
f 108/305/7 120/306/7 93/307/7 85/308/7
f 118/309/7 110/310/7 95/311/7 87/312/7
f 117/313/9 119/314/9 92/315/9 91/316/9
f 109/317/8 107/318/8 86/319/8 94/320/8
f 83/321/5 91/322/5 92/323/5 84/324/5
f 121/325/6 118/326/6 87/327/6 88/328/6
f 120/329/9 109/330/9 94/331/9 93/332/9
f 122/333/8 121/334/8 88/335/8 96/336/8
f 85/337/5 93/338/5 94/339/5 86/340/5
f 81/341/5 89/342/5 90/343/5 82/344/5
f 115/345/13 111/346/13 81/347/13 82/348/13
f 110/349/9 122/350/9 96/351/9 95/352/9
f 87/353/5 95/354/5 96/355/5 88/356/5
f 116/357/6 114/358/6 83/359/6 84/360/6
f 128/361/14 127/362/14 124/363/14 123/364/14
f 128/365/2 129/366/2 130/367/2 127/368/2
f 124/369/4 125/370/4 126/371/4 123/372/4
f 126/373/5 125/374/5 130/375/5 129/376/5
f 127/362/1 130/377/1 125/378/1 124/363/1
f 128/379/3 123/380/3 126/381/3 129/382/3
